<svg xmlns="http://www.w3.org/2000/svg" viewBox="0 0 75 67.5">
  <defs>
    <style>
      .cls-1 {
        fill: #a7a7a7;
      }
    </style>
  </defs>
  <g id="camera" transform="translate(0 -25.5)">
    <g id="camera-alt" transform="translate(0 25.5)">
      <circle id="Ellipse_71" data-name="Ellipse 71" class="cls-1" cx="12" cy="12" r="12" transform="translate(25.5 25.5)"/>
      <path id="Path_31604" data-name="Path 31604" class="cls-1" d="M26.25,25.5,19.5,33H7.5A7.522,7.522,0,0,0,0,40.5v45A7.522,7.522,0,0,0,7.5,93h60A7.522,7.522,0,0,0,75,85.5v-45A7.522,7.522,0,0,0,67.5,33h-12l-6.75-7.5ZM37.5,81.75A18.75,18.75,0,1,1,56.25,63,18.568,18.568,0,0,1,37.5,81.75Z" transform="translate(0 -25.5)"/>
    </g>
  </g>
</svg>
