<svg id="Group_33621" data-name="Group 33621" xmlns="http://www.w3.org/2000/svg" viewBox="0 0 210 210">
  <defs>
    <style>
      .cls-1 {
        fill: #fff;
        stroke: #00aeef;
        stroke-width: 7px;
      }

      .cls-2 {
        fill: #00aeef;
      }

      .cls-3 {
        stroke: none;
      }

      .cls-4 {
        fill: none;
      }
    </style>
  </defs>
  <g id="Ellipse_61" data-name="Ellipse 61" class="cls-1" transform="translate(0 0)">
    <circle class="cls-3" cx="105" cy="105" r="105"/>
    <circle class="cls-4" cx="105" cy="105" r="101.5"/>
  </g>
  <g id="blogging" transform="translate(39.375 39.375)">
    <path id="Path_31571" data-name="Path 31571" class="cls-2" d="M126.268,9.139H107.056V2.094A2.094,2.094,0,0,0,104.961,0H26.289a2.094,2.094,0,0,0-2.094,2.094V9.139H4.982A4.987,4.987,0,0,0,0,14.121v91.932a4.988,4.988,0,0,0,4.982,4.982H50.726v16.026H30.972a2.094,2.094,0,1,0,0,4.189H91.006a2.094,2.094,0,0,0,0-4.189H80.524V111.036h8.62a2.094,2.094,0,1,0,0-4.189H4.982a.8.8,0,0,1-.793-.793V14.121a.8.8,0,0,1,.793-.793H24.194V89.806H10.758a2.094,2.094,0,0,0,0,4.189H89.144a2.094,2.094,0,0,0,0-4.189H72.7V72.688a2.094,2.094,0,0,0-2.094-2.094H37.459a2.094,2.094,0,0,0-2.094,2.094V89.806H28.383V4.189h74.484V23.273a2.094,2.094,0,0,0,4.189,0V13.328h19.212a.8.8,0,0,1,.793.793v91.932a.8.8,0,0,1-.793.793h-5.49a2.094,2.094,0,0,0,0,4.189h5.49a4.988,4.988,0,0,0,4.982-4.982V14.121A4.987,4.987,0,0,0,126.268,9.139ZM76.335,127.061H54.915V111.036h21.42ZM39.553,74.783H68.511V89.806H39.553Z"/>
    <path id="Path_31572" data-name="Path 31572" class="cls-2" d="M360.762,126.148c0-.03-.008-.061-.014-.09s-.02-.087-.032-.13c-.006-.022-.01-.044-.017-.066-.013-.045-.029-.088-.046-.131-.006-.016-.011-.033-.017-.049l-.01-.026-.005-.013-7.423-18.49a2.094,2.094,0,0,0-3.887,0l-7.425,18.491-.015.037c-.007.018-.012.036-.019.054-.015.042-.031.083-.044.126-.007.022-.011.045-.017.068-.011.042-.023.084-.031.128s-.009.061-.014.091-.012.072-.016.109c-.007.068-.01.137-.01.205V198a9.534,9.534,0,1,0,19.068,0V126.462c0-.069,0-.137-.01-.205,0-.037-.011-.073-.016-.109Zm-14.852,2.409H356.6v59.813H345.91Zm5.345-15,4.342,10.813h-8.683Zm0,89.79A5.351,5.351,0,0,1,345.909,198v-5.441H356.6V198A5.351,5.351,0,0,1,351.255,203.344Z" transform="translate(-246.294 -76.283)"/>
    <path id="Path_31573" data-name="Path 31573" class="cls-2" d="M128.733,58.932h56.332a2.094,2.094,0,0,0,2.094-2.094V42.094A2.094,2.094,0,0,0,185.066,40H128.733a2.094,2.094,0,0,0-2.094,2.094V56.838A2.094,2.094,0,0,0,128.733,58.932Zm2.094-14.743h52.143V54.743H130.828Z" transform="translate(-91.274 -28.83)"/>
    <path id="Path_31574" data-name="Path 31574" class="cls-2" d="M185.065,122.8H128.733a2.094,2.094,0,0,0,0,4.189h56.332a2.094,2.094,0,1,0,0-4.189Z" transform="translate(-91.274 -88.504)"/>
    <path id="Path_31575" data-name="Path 31575" class="cls-2" d="M161.88,162.8H128.733a2.094,2.094,0,1,0,0,4.189H161.88a2.094,2.094,0,0,0,0-4.189Z" transform="translate(-91.274 -117.334)"/>
    <path id="Path_31576" data-name="Path 31576" class="cls-2" d="M287.994,162.8H277.431a2.094,2.094,0,1,0,0,4.189h10.563a2.094,2.094,0,1,0,0-4.189Z" transform="translate(-198.447 -117.334)"/>
    <path id="Path_31577" data-name="Path 31577" class="cls-2" d="M161.88,192.8H128.733a2.094,2.094,0,0,0,0,4.189H161.88a2.094,2.094,0,0,0,0-4.189Z" transform="translate(-91.274 -138.956)"/>
    <path id="Path_31578" data-name="Path 31578" class="cls-2" d="M287.591,192.8h-10.16a2.094,2.094,0,1,0,0,4.189h10.16a2.094,2.094,0,1,0,0-4.189Z" transform="translate(-198.447 -138.956)"/>
    <path id="Path_31579" data-name="Path 31579" class="cls-2" d="M161.88,222.8H128.733a2.094,2.094,0,1,0,0,4.189H161.88a2.094,2.094,0,0,0,0-4.189Z" transform="translate(-91.274 -160.578)"/>
    <path id="Path_31580" data-name="Path 31580" class="cls-2" d="M287.591,222.8h-10.16a2.094,2.094,0,1,0,0,4.189h10.16a2.094,2.094,0,1,0,0-4.189Z" transform="translate(-198.447 -160.578)"/>
  </g>
</svg>
