<svg id="Group_33620" data-name="Group 33620" xmlns="http://www.w3.org/2000/svg" viewBox="0 0 210 210">
  <defs>
    <style>
      .cls-1 {
        fill: #fff;
      }

      .cls-2, .cls-4 {
        fill: #00aeef;
      }

      .cls-3, .cls-4 {
        stroke: none;
      }
    </style>
  </defs>
  <g id="Path_32244" data-name="Path 32244" class="cls-1" transform="translate(0 0)">
    <path class="cls-3" d="M 105 206.5 C 98.11106109619141 206.5 91.22750091552734 205.8061828613281 84.54049682617188 204.4378204345703 C 78.02523803710938 203.1046142578125 71.61664581298828 201.1152648925781 65.49270629882813 198.5250549316406 C 59.47914886474609 195.9815521240234 53.67882537841797 192.8332061767578 48.25282287597656 189.1674652099609 C 42.87747192382813 185.5359344482422 37.82261657714844 181.3652954101563 33.22867584228516 176.7713470458984 C 28.63470649719238 172.1773834228516 24.46405792236328 167.1225280761719 20.83252906799316 161.7471771240234 C 17.16679382324219 156.3211822509766 14.01844120025635 150.5208587646484 11.47494125366211 144.50732421875 C 8.884735107421875 138.3833770751953 6.895382404327393 131.9747619628906 5.562176704406738 125.4595031738281 C 4.193823337554932 118.7724990844727 3.5 111.8889389038086 3.5 105 C 3.5 98.11106109619141 4.193823337554932 91.22750091552734 5.562176704406738 84.54049682617188 C 6.895382404327393 78.02523803710938 8.884735107421875 71.61664581298828 11.47494125366211 65.49270629882813 C 14.01844120025635 59.47917556762695 17.16679382324219 53.67882537841797 20.83252906799316 48.25282287597656 C 24.46405792236328 42.87747192382813 28.63470649719238 37.82261657714844 33.22867584228516 33.22867584228516 C 37.82261657714844 28.63470649719238 42.87747192382813 24.46405792236328 48.25282287597656 20.83252906799316 C 53.67882537841797 17.16679382324219 59.47917556762695 14.01844120025635 65.49270629882813 11.47494125366211 C 71.61664581298828 8.884735107421875 78.02523803710938 6.895382404327393 84.54049682617188 5.562176704406738 C 91.22750091552734 4.193823337554932 98.11106109619141 3.5 105 3.5 C 111.8889389038086 3.5 118.7724990844727 4.193823337554932 125.4595031738281 5.562176704406738 C 131.9747619628906 6.895382404327393 138.3833770751953 8.884735107421875 144.50732421875 11.47494125366211 C 150.5208587646484 14.01844120025635 156.3211822509766 17.16679382324219 161.7471771240234 20.83252906799316 C 167.1225280761719 24.46405792236328 172.1773834228516 28.63470649719238 176.7713470458984 33.22867584228516 C 181.3652954101563 37.82261657714844 185.5359344482422 42.87747192382813 189.1674652099609 48.25282287597656 C 192.8332061767578 53.67882537841797 195.9815521240234 59.47914886474609 198.5250549316406 65.49270629882813 C 201.1152648925781 71.61664581298828 203.1046142578125 78.02523803710938 204.4378204345703 84.54049682617188 C 205.8061828613281 91.22750091552734 206.5 98.11106109619141 206.5 105 C 206.5 111.8889389038086 205.8061828613281 118.7724990844727 204.4378204345703 125.4595031738281 C 203.1046142578125 131.9747619628906 201.1152648925781 138.3833770751953 198.5250549316406 144.50732421875 C 195.9815521240234 150.5208587646484 192.8332061767578 156.3211822509766 189.1674652099609 161.7471771240234 C 185.5359344482422 167.1225280761719 181.3652954101563 172.1773834228516 176.7713470458984 176.7713470458984 C 172.1773834228516 181.3652954101563 167.1225280761719 185.5359344482422 161.7471771240234 189.1674652099609 C 156.3211822509766 192.8332061767578 150.5208587646484 195.9815521240234 144.50732421875 198.5250549316406 C 138.3833770751953 201.1152648925781 131.9747619628906 203.1046142578125 125.4595031738281 204.4378204345703 C 118.7724990844727 205.8061828613281 111.8889389038086 206.5 105 206.5 Z"/>
    <path class="cls-4" d="M 105 203 C 159.0373687744141 203 203 159.0373687744141 203 105 C 203 50.9626350402832 159.0373687744141 7 105 7 C 50.9626350402832 7 7 50.9626350402832 7 105 C 7 159.0373687744141 50.9626350402832 203 105 203 M 105 210 C 47.01010131835938 210 0 162.9898986816406 0 105 C 0 47.01010131835938 47.01010131835938 0 105 0 C 162.9898986816406 0 210 47.01010131835938 210 105 C 210 162.9898986816406 162.9898986816406 210 105 210 Z"/>
  </g>
  <g id="file" transform="translate(52.5 39.375)">
    <path id="Path_31581" data-name="Path 31581" class="cls-2" d="M75.875,25H21.187a2.187,2.187,0,0,0,0,4.375H75.875a2.187,2.187,0,0,0,0-4.375Z" transform="translate(9.437 29.688)"/>
    <path id="Path_31582" data-name="Path 31582" class="cls-2" d="M21.187,21.375H43.062a2.188,2.188,0,0,0,0-4.375H21.187a2.188,2.188,0,0,0,0,4.375Z" transform="translate(9.437 20.188)"/>
    <path id="Path_31583" data-name="Path 31583" class="cls-2" d="M75.875,33H21.187a2.188,2.188,0,0,0,0,4.375H75.875a2.188,2.188,0,0,0,0-4.375Z" transform="translate(9.437 39.188)"/>
    <path id="Path_31584" data-name="Path 31584" class="cls-2" d="M75.875,41H21.187a2.187,2.187,0,1,0,0,4.375H75.875a2.187,2.187,0,0,0,0-4.375Z" transform="translate(9.437 48.688)"/>
    <path id="Path_31585" data-name="Path 31585" class="cls-2" d="M75.875,49H21.187a2.188,2.188,0,0,0,0,4.375H75.875a2.188,2.188,0,0,0,0-4.375Z" transform="translate(9.437 58.188)"/>
    <path id="Path_31586" data-name="Path 31586" class="cls-2" d="M100.062,31.907V0H6V120.312H16.937V131.25H111V42.844Zm-19.688-13.5,19.688,19.687,3.469,3.469H80.375Zm-70,97.532V4.375H95.687V27.532L79.093,10.937H16.937v105Zm10.938,10.938V15.313H76V45.938h30.625v80.938Z" transform="translate(-6)"/>
  </g>
</svg>
