<svg xmlns="http://www.w3.org/2000/svg" viewBox="0 0 210 210">
  <defs>
    <style>
      .cls-1 {
        fill: #fff;
      }

      .cls-2, .cls-4 {
        fill: #00aeef;
      }

      .cls-3, .cls-4 {
        stroke: none;
      }
    </style>
  </defs>
  <g id="Group_33624" data-name="Group 33624" transform="translate(-121.529 -7354)">
    <g id="Path_32334" data-name="Path 32334" class="cls-1" transform="translate(121.529 7354)">
      <path class="cls-3" d="M 104.9999618530273 206.4999389648438 C 98.11102294921875 206.4999389648438 91.22746276855469 205.8061065673828 84.54045867919922 204.4377593994141 C 78.02519989013672 203.1045532226563 71.61660766601563 201.1152038574219 65.49266815185547 198.5249938964844 C 59.4791374206543 195.9814910888672 53.67881393432617 192.8331451416016 48.25281524658203 189.1674041748047 C 42.87746047973633 185.5359039306641 37.82260894775391 181.3652191162109 33.2286376953125 176.7712860107422 C 28.63469696044922 172.1773223876953 24.46401977539063 167.1224670410156 20.83252143859863 161.7471160888672 C 17.16678619384766 156.3211059570313 14.0184326171875 150.5207824707031 11.47493267059326 144.5072631835938 C 8.884726524353027 138.3833160400391 6.895373821258545 131.9747314453125 5.562167644500732 125.4594650268555 C 4.193814754486084 118.7724609375 3.499991178512573 111.8889007568359 3.499991178512573 104.9999618530273 C 3.499991178512573 98.11102294921875 4.193814754486084 91.22746276855469 5.562167644500732 84.54045867919922 C 6.895373821258545 78.02519989013672 8.884726524353027 71.61660766601563 11.47493267059326 65.49266815185547 C 14.0184326171875 59.4791374206543 17.16678619384766 53.67881393432617 20.83252143859863 48.25281524658203 C 24.46401977539063 42.87746047973633 28.63469696044922 37.82260894775391 33.2286376953125 33.2286376953125 C 37.82260894775391 28.63469696044922 42.87746047973633 24.46401977539063 48.25281524658203 20.83252143859863 C 53.67881393432617 17.16678619384766 59.4791374206543 14.0184326171875 65.49266815185547 11.47493267059326 C 71.61660766601563 8.884726524353027 78.02519989013672 6.895373821258545 84.54045867919922 5.562167644500732 C 91.22746276855469 4.193814754486084 98.11102294921875 3.499991178512573 104.9999618530273 3.499991178512573 C 111.8889007568359 3.499991178512573 118.7724609375 4.193814754486084 125.4594650268555 5.562167644500732 C 131.9747314453125 6.895373821258545 138.3833160400391 8.884726524353027 144.5072631835938 11.47493267059326 C 150.5207824707031 14.0184326171875 156.3211059570313 17.16678619384766 161.7471160888672 20.83252143859863 C 167.1224670410156 24.46401977539063 172.1773223876953 28.63469696044922 176.7712860107422 33.2286376953125 C 181.3652191162109 37.82260894775391 185.5359039306641 42.87746047973633 189.1674041748047 48.25281524658203 C 192.8331451416016 53.67881393432617 195.9814910888672 59.4791374206543 198.5249938964844 65.49266815185547 C 201.1152038574219 71.61660766601563 203.1045532226563 78.02519989013672 204.4377593994141 84.54045867919922 C 205.8061065673828 91.22746276855469 206.4999389648438 98.11102294921875 206.4999389648438 104.9999618530273 C 206.4999389648438 111.8889007568359 205.8061065673828 118.7724609375 204.4377593994141 125.4594650268555 C 203.1045532226563 131.9747314453125 201.1152038574219 138.3833160400391 198.5249938964844 144.5072631835938 C 195.9814910888672 150.5207824707031 192.8331451416016 156.3211059570313 189.1674041748047 161.7471160888672 C 185.5359039306641 167.1224670410156 181.3652191162109 172.1773223876953 176.7712860107422 176.7712860107422 C 172.1773223876953 181.3652191162109 167.1224670410156 185.5359039306641 161.7471160888672 189.1674041748047 C 156.3211059570313 192.8331451416016 150.5207824707031 195.9814910888672 144.5072631835938 198.5249938964844 C 138.3833160400391 201.1152038574219 131.9747314453125 203.1045532226563 125.4594650268555 204.4377593994141 C 118.7724609375 205.8061065673828 111.8889007568359 206.4999389648438 104.9999618530273 206.4999389648438 Z"/>
      <path class="cls-4" d="M 104.9999618530273 202.9999237060547 C 159.0373229980469 202.9999237060547 202.9999237060547 159.0373229980469 202.9999237060547 104.9999618530273 C 202.9999237060547 50.96259689331055 159.0373229980469 6.999995231628418 104.9999618530273 6.999995231628418 C 50.96259689331055 6.999995231628418 6.999995231628418 50.96259689331055 6.999995231628418 104.9999618530273 C 6.999995231628418 159.0373229980469 50.96259689331055 202.9999237060547 104.9999618530273 202.9999237060547 M 104.9999618530273 209.9999237060547 C 47.01009368896484 209.9999237060547 -4.813639407075243e-06 162.9898223876953 -4.813639407075243e-06 104.9999618530273 C -4.813639407075243e-06 47.01009368896484 47.01009368896484 -4.813639407075243e-06 104.9999618530273 -4.813639407075243e-06 C 162.9898223876953 -4.813639407075243e-06 209.9999237060547 47.01009368896484 209.9999237060547 104.9999618530273 C 209.9999237060547 162.9898223876953 162.9898223876953 209.9999237060547 104.9999618530273 209.9999237060547 Z"/>
    </g>
    <g id="calendar" transform="translate(165.82 7393.862)">
      <path id="Path_32242" data-name="Path 32242" class="cls-2" d="M122.309,8.75H107V2.187A2.185,2.185,0,0,0,104.81,0H89.5A2.185,2.185,0,0,0,87.31,2.187V8.75H39.187V2.187A2.185,2.185,0,0,0,37,0H21.687A2.185,2.185,0,0,0,19.5,2.187V8.75H4.187A2.185,2.185,0,0,0,2,10.937V129.059a2.185,2.185,0,0,0,2.187,2.187H122.309a2.185,2.185,0,0,0,2.187-2.187V10.937A2.185,2.185,0,0,0,122.309,8.75ZM91.685,4.375h10.937V17.5H91.685V4.375Zm-67.811,0H34.812V17.5H23.874V4.375Zm-17.5,8.75H19.5v6.562a2.185,2.185,0,0,0,2.187,2.187H37a2.185,2.185,0,0,0,2.187-2.187V13.125H87.31v6.562A2.185,2.185,0,0,0,89.5,21.874H104.81A2.185,2.185,0,0,0,107,19.687V13.125h13.125V32.812H6.375Zm0,113.747V37.186H120.122v89.685Z" transform="translate(-2)"/>
      <path id="Path_32243" data-name="Path 32243" class="cls-2" d="M70.061,23H11V86.436H94.123V23H70.061ZM54.749,27.375H70.061V42.687H54.749Zm15.312,35H54.749V47.062H70.061Zm-35-15.312H50.374V62.374H35.062Zm0-19.687H50.374V42.687H35.062Zm-19.687,0H30.687V42.687H15.375Zm0,19.687H30.687V62.374H15.375Zm15.312,35H15.375V66.749H30.687Zm19.687,0H35.062V66.749H50.374Zm19.687,0H54.749V66.749H70.061Zm19.687,0H74.436V66.749H89.748Zm0-19.687H74.436V47.062H89.748Zm0-35V42.687H74.436V27.375Z" transform="translate(8.687 27.311)"/>
    </g>
  </g>
</svg>
