<svg id="Group_33619" data-name="Group 33619" xmlns="http://www.w3.org/2000/svg" viewBox="0 0 210 210">
  <defs>
    <style>
      .cls-1 {
        fill: #fff;
        stroke: #00aeef;
        stroke-width: 7px;
      }

      .cls-2 {
        fill: #00aeef;
      }

      .cls-3 {
        stroke: none;
      }

      .cls-4 {
        fill: none;
      }
    </style>
  </defs>
  <g id="Ellipse_63" data-name="Ellipse 63" class="cls-1" transform="translate(0 0)">
    <circle class="cls-3" cx="105" cy="105" r="105"/>
    <circle class="cls-4" cx="105" cy="105" r="101.5"/>
  </g>
  <g id="smartphone" transform="translate(39.375 39.375)">
    <g id="Group_32873" data-name="Group 32873">
      <g id="Group_32872" data-name="Group 32872">
        <path id="Path_31587" data-name="Path 31587" class="cls-2" d="M4.234,16.935H71.976v4.234H76.21V10.585A10.6,10.6,0,0,0,65.625,0H10.585A10.6,10.6,0,0,0,0,10.585v95.262H4.234Zm0-6.351a6.359,6.359,0,0,1,6.351-6.351h55.04a6.359,6.359,0,0,1,6.351,6.351V12.7H4.234Z"/>
        <path id="Path_31588" data-name="Path 31588" class="cls-2" d="M0,426.585a10.6,10.6,0,0,0,10.585,10.585h55.04A10.6,10.6,0,0,0,76.21,426.585V416H0Zm4.234-6.351H71.976v6.351a6.359,6.359,0,0,1-6.351,6.351H10.585a6.359,6.359,0,0,1-6.351-6.351Z" transform="translate(0 -305.919)"/>
        <rect id="Rectangle_2108" data-name="Rectangle 2108" class="cls-2" width="21.169" height="4.234" transform="translate(27.52 118.548)"/>
        <path id="Path_31589" data-name="Path 31589" class="cls-2" d="M324.7,248a12.7,12.7,0,1,0,12.7,12.7A12.714,12.714,0,0,0,324.7,248Zm0,21.169a8.468,8.468,0,1,1,8.468-8.468A8.476,8.476,0,0,1,324.7,269.169Z" transform="translate(-229.44 -182.375)"/>
        <path id="Path_31590" data-name="Path 31590" class="cls-2" d="M106.585,144a10.585,10.585,0,1,0,10.585,10.585A10.6,10.6,0,0,0,106.585,144Zm0,16.935a6.351,6.351,0,1,1,6.351-6.351A6.359,6.359,0,0,1,106.585,160.935Z" transform="translate(-70.597 -105.895)"/>
        <path id="Path_31591" data-name="Path 31591" class="cls-2" d="M81.125,176.49q.584-.222,1.162-.487l6.563,4.376,8.442-8.442-4.376-6.562q.264-.581.487-1.162l7.727-1.545v-11.94L93.4,149.182a22.368,22.368,0,0,0-1.05-2.31l-3.747,1.971a16.887,16.887,0,0,1,1.175,2.807l.375,1.2L96.9,154.2v5l-6.742,1.348-.375,1.2a16.785,16.785,0,0,1-1.175,2.807l-.584,1.113,3.821,5.733L88.31,174.93l-5.733-3.823-1.111.584a16.9,16.9,0,0,1-2.809,1.177l-1.2.375-1.348,6.74h-5l-1.348-6.74-1.2-.375a16.906,16.906,0,0,1-2.809-1.177l-1.111-.584-5.733,3.823-4.759-4.761-2.993,2.993,7.215,7.215L64.937,176q.578.264,1.162.487l1.545,7.727H79.582Z" transform="translate(-37.622 -108.007)"/>
        <path id="Path_31592" data-name="Path 31592" class="cls-2" d="M32,101.55v11.94l7.727,1.545a22.362,22.362,0,0,0,1.05,2.31l3.747-1.971a16.888,16.888,0,0,1-1.175-2.807l-.375-1.2-6.74-1.348v-5l6.742-1.348.375-1.2a16.784,16.784,0,0,1,1.175-2.807l.584-1.114L41.289,92.82l3.533-3.533,5.735,3.823,1.111-.586a16.958,16.958,0,0,1,2.8-1.175l1.2-.375,1.348-6.74h5l1.348,6.74,1.2.375a16.884,16.884,0,0,1,2.8,1.175l1.111.586,5.735-3.823,4.761,4.761,2.993-2.993L74.758,83.84l-6.565,4.374c-.387-.176-.773-.337-1.162-.487L65.488,80H53.55l-1.545,7.727c-.39.15-.775.311-1.162.487L44.278,83.84l-8.44,8.44,4.376,6.563q-.264.581-.487,1.162Z" transform="translate(-23.532 -58.831)"/>
        <rect id="Rectangle_2109" data-name="Rectangle 2109" class="cls-2" width="4.234" height="4.234" transform="translate(33.871 80.444)"/>
        <rect id="Rectangle_2110" data-name="Rectangle 2110" class="cls-2" width="4.234" height="4.234" transform="translate(33.871 88.911)"/>
        <rect id="Rectangle_2111" data-name="Rectangle 2111" class="cls-2" width="4.234" height="4.234" transform="translate(33.871 97.379)"/>
        <rect id="Rectangle_2112" data-name="Rectangle 2112" class="cls-2" width="4.234" height="4.234" transform="translate(93.145 33.871)"/>
        <rect id="Rectangle_2113" data-name="Rectangle 2113" class="cls-2" width="4.234" height="4.234" transform="translate(93.145 25.403)"/>
        <rect id="Rectangle_2114" data-name="Rectangle 2114" class="cls-2" width="4.234" height="4.234" transform="translate(93.145 16.935)"/>
        <path id="Path_31593" data-name="Path 31593" class="cls-2" d="M312.778,270.777V254.6l-10.441-2.085q-.365-.918-.8-1.814l-3.808,1.852a22.567,22.567,0,0,1,1.037,2.5l.4,1.145,9.382,1.876V267.3l-9.382,1.878-.4,1.145a22.8,22.8,0,0,1-1.037,2.5l-.531,1.09,5.311,7.966-6.527,6.526-7.968-5.309-1.09.531a22.406,22.406,0,0,1-2.5,1.037l-1.145.4-1.873,9.38h-9.23l-1.878-9.382-1.145-.4a22.79,22.79,0,0,1-2.5-1.037l-1.09-.531L257.6,288.4l-7.754-7.752-2.993,2.993,10.21,10.208,8.859-5.906c.231.1.464.2.7.29l2.089,10.441h16.176l2.085-10.441c.233-.093.466-.19.7-.29l8.859,5.906,11.438-11.434-5.908-8.862c.1-.231.2-.464.29-.7Z" transform="translate(-181.528 -184.363)"/>
        <path id="Path_31594" data-name="Path 31594" class="cls-2" d="M228.82,176.258l5.908,8.859c-.1.231-.2.464-.29.7L224,187.9v16.176l10.441,2.085q.365.918.8,1.812l3.808-1.852a22.4,22.4,0,0,1-1.037-2.5l-.4-1.145-9.382-1.876v-9.23l9.382-1.878.4-1.145a22.979,22.979,0,0,1,1.037-2.5l.531-1.092-5.311-7.964,6.527-6.527,7.966,5.309,1.092-.529a22.8,22.8,0,0,1,2.5-1.042l1.141-.4,1.871-9.376H264.6l1.876,9.378,1.141.4a22.972,22.972,0,0,1,2.5,1.042l1.092.529,7.966-5.309,7.754,7.754,2.993-2.993-10.21-10.208-8.862,5.906c-.229-.1-.461-.195-.694-.288L268.072,160H251.9l-2.087,10.441c-.233.093-.466.188-.694.288l-8.861-5.906Z" transform="translate(-164.726 -117.661)"/>
      </g>
    </g>
  </g>
</svg>
