<svg xmlns="http://www.w3.org/2000/svg" viewBox="0 0 33 33">
  <defs>
    <style>
      .cls-1 {
        fill: #5f6061;
      }
    </style>
  </defs>
  <g id="phone-call" transform="translate(0)">
    <path id="Path_32293" data-name="Path 32293" class="cls-1" d="M26.523,33a14.173,14.173,0,0,1-4.855-1.032A36.424,36.424,0,0,1,9.419,23.581,36.45,36.45,0,0,1,1.03,11.33C-.341,7.7-.344,4.712,1.022,3.347c.2-.2.4-.407.6-.625C2.871,1.411,4.28-.064,6.147,0,7.433.055,8.68.855,9.956,2.443c3.772,4.691,2.071,6.362.1,8.3l-.347.344c-.322.322-.93,1.813,4.728,7.471a31.377,31.377,0,0,0,4.681,4.017c.793.515,2.21,1.294,2.792.713l.35-.353c1.936-1.964,3.607-3.658,8.295.11,1.588,1.276,2.386,2.522,2.44,3.81.077,1.866-1.41,3.278-2.722,4.523-.216.206-.427.406-.624.6A4.324,4.324,0,0,1,26.523,33ZM6.014,1.11C4.687,1.11,3.49,2.371,2.43,3.486c-.213.224-.42.442-.623.645C.789,5.148.892,7.82,2.069,10.94A35.334,35.334,0,0,0,10.2,22.8,35.308,35.308,0,0,0,22.06,30.93c3.12,1.179,5.792,1.279,6.807.263.2-.2.421-.41.645-.622,1.14-1.083,2.433-2.311,2.376-3.673-.039-.936-.72-1.942-2.026-2.991-3.906-3.141-5-2.032-6.81-.2l-.355.359c-.866.867-2.272.675-4.181-.566a32.41,32.41,0,0,1-4.861-4.163c-4.7-4.7-6.2-7.569-4.728-9.042l.354-.35c1.841-1.811,2.952-2.9-.19-6.813C8.042,1.833,7.036,1.151,6.1,1.111Z" transform="translate(0 0)"/>
  </g>
</svg>
