<svg id="question" xmlns="http://www.w3.org/2000/svg" viewBox="0 0 33 33">
  <defs>
    <style>
      .cls-1 {
        fill: #5f6061;
      }
    </style>
  </defs>
  <g id="Group_36" data-name="Group 36">
    <path id="Path_16" data-name="Path 16" class="cls-1" d="M115.582,68.419a4.533,4.533,0,0,0-4.122.916,4.89,4.89,0,0,0-1.832,3.893,1.145,1.145,0,0,0,2.29,0,2.486,2.486,0,0,1,.916-2.061,2.663,2.663,0,0,1,2.29-.458,2.707,2.707,0,0,1,2.061,2.061,2.5,2.5,0,0,1-.916,2.748,6.829,6.829,0,0,0-2.748,5.5,1.082,1.082,0,0,0,1.145,1.145c.687,0,1.145-.458.916-1.145a5.043,5.043,0,0,1,2.061-3.664,4.962,4.962,0,0,0,1.832-5.037,5.192,5.192,0,0,0-3.893-3.893Z" transform="translate(-98.159 -60.912)"/>
    <path id="Path_17" data-name="Path 17" class="cls-1" d="M139.439,208.288a1.377,1.377,0,0,0-.229.916.841.841,0,0,0,.229.687,1.736,1.736,0,0,0,.916.458c.229,0,.687-.229.687-.458.229,0,.458-.458.458-.687a1.19,1.19,0,0,0-.458-.916A1.107,1.107,0,0,0,139.439,208.288Z" transform="translate(-123.848 -184.828)"/>
    <path id="Path_18" data-name="Path 18" class="cls-1" d="M16.5,0A16.5,16.5,0,1,0,33,16.5,16.486,16.486,0,0,0,16.5,0Zm0,31.059A14.665,14.665,0,0,1,1.941,16.5,14.665,14.665,0,0,1,16.5,1.941,14.665,14.665,0,0,1,31.059,16.5,14.665,14.665,0,0,1,16.5,31.059Z"/>
  </g>
</svg>
