<svg xmlns="http://www.w3.org/2000/svg" viewBox="0 0 198.688 223.545">
  <defs>
    <style>
      .cls-1 {
        fill: #00aeef;
      }
    </style>
  </defs>
  <g id="seconds" transform="translate(-26.289)">
    <g id="Layer_8_46_" transform="translate(26.289)">
      <path id="Path_31804" data-name="Path 31804" class="cls-1" d="M202.058,60.827l6.571-6.57a4.937,4.937,0,0,0,5.575-.98l1.17-1.168a4.966,4.966,0,0,0,0-7.012l-8.419-8.418a4.957,4.957,0,0,0-7.014,0l-1.166,1.168a4.959,4.959,0,0,0,0,7.012l.26.256L192.952,51.2a98.865,98.865,0,0,0-58.305-25.9V19.232h.88a8.239,8.239,0,0,0,8.242-8.241V8.242A8.242,8.242,0,0,0,135.527,0H115.74A8.24,8.24,0,0,0,107.5,8.241v2.75a8.24,8.24,0,0,0,8.242,8.241h.877v6.036a99.343,99.343,0,0,0,3.542,198.126c1.862.1,3.708.152,5.551.152A99.279,99.279,0,0,0,202.058,60.827Zm9.543,68.112A86.1,86.1,0,1,1,125.557,38.1c1.6,0,3.2.045,4.823.133A86.2,86.2,0,0,1,211.6,128.939Zm-70.19-4.745a15.776,15.776,0,1,1-20.283-15.114V61.6a4.507,4.507,0,1,1,9.014,0v47.491A15.772,15.772,0,0,1,141.412,124.194Z" transform="translate(-26.289)"/>
    </g>
  </g>
</svg>
