<svg xmlns="http://www.w3.org/2000/svg" viewBox="0 0 210 210">
  <defs>
    <style>
      .cls-1 {
        fill: #fff;
        stroke: #00aeef;
        stroke-width: 7px;
      }

      .cls-2 {
        fill: #00aeef;
      }

      .cls-3 {
        stroke: none;
      }

      .cls-4 {
        fill: none;
      }
    </style>
  </defs>
  <g id="Group_33625" data-name="Group 33625" transform="translate(-1382.736 -7354)">
    <g id="Ellipse_113" data-name="Ellipse 113" class="cls-1" transform="translate(1382.736 7354)">
      <circle class="cls-3" cx="105" cy="105" r="105"/>
      <circle class="cls-4" cx="105" cy="105" r="101.5"/>
    </g>
    <g id="like" transform="translate(1422.598 7392.755)">
      <g id="Group_33622" data-name="Group 33622" transform="translate(0 0)">
        <path id="Path_32247" data-name="Path 32247" class="cls-2" d="M77.025,11.526C69.392,5.924,58.837,9.144,58.4,9.28A2.436,2.436,0,0,0,56.7,11.607V34.828c0,7.876-3.735,14.533-11.123,19.811a42.943,42.943,0,0,1-11.611,5.792c-.054,0-.081.027-.135.054l-1.38.46a4.582,4.582,0,0,0-3.924-2.219H4.574A4.586,4.586,0,0,0,0,63.3v65.089a4.586,4.586,0,0,0,4.574,4.574H28.553a4.56,4.56,0,0,0,4.439-3.518,17.607,17.607,0,0,0,12.883,5.6h56.781c12.071,0,19.784-6.306,21.137-17.321l7.253-46.063a17.824,17.824,0,0,0-6.983-17.24,17.428,17.428,0,0,0-10.257-3.3H84.278V29.578C84.278,21.134,81.842,15.072,77.025,11.526ZM28.2,128.037H4.9V63.625H28.2ZM113.8,56.02a12.471,12.471,0,0,1,7.389,2.382,12.922,12.922,0,0,1,4.98,12.5L118.947,117v.081c-1.326,10.772-9.581,13.045-16.293,13.045H45.874a12.752,12.752,0,0,1-12.747-12.747V65.9l2.246-.758A46.009,46.009,0,0,0,48.31,58.726C57,52.555,61.6,44.3,61.6,34.855V13.583c2.815-.541,8.471-1.083,12.558,1.922,3.464,2.544,5.223,7.28,5.223,14.073V53.584a2.472,2.472,0,0,0,2.463,2.463H113.8Z" transform="translate(0 -8.237)"/>
      </g>
    </g>
  </g>
</svg>
