<svg xmlns="http://www.w3.org/2000/svg" viewBox="0 0 32 32">
  <defs>
    <style>
      .cls-1 {
        fill: #707070;
      }
    </style>
  </defs>
  <g id="Group_33750" data-name="Group 33750" transform="translate(-1690 -34)">
    <path id="download" class="cls-1" d="M19.2,3.2a16,16,0,1,0,16,16A16,16,0,0,0,19.2,3.2Zm0,1.333A14.658,14.658,0,0,1,30.482,28.571c-1.462-.61-4.914-1.808-7.05-2.44-.183-.058-.211-.066-.211-.825a4.375,4.375,0,0,1,.509-1.791,9.18,9.18,0,0,0,.712-2.431,5.482,5.482,0,0,0,1.049-2.533,3.335,3.335,0,0,0-.033-2.126c-.018-.045-.035-.089-.049-.134a13.961,13.961,0,0,1,.236-2.99,5.474,5.474,0,0,0-1.152-3.95A5.9,5.9,0,0,0,19.988,7.2H18.64a5.867,5.867,0,0,0-4.464,2.155,5.479,5.479,0,0,0-1.15,3.95,13.992,13.992,0,0,1,.239,2.985.959.959,0,0,1-.05.139,3.34,3.34,0,0,0-.031,2.126,5.455,5.455,0,0,0,1.049,2.533,9.087,9.087,0,0,0,.712,2.431,4.329,4.329,0,0,1,.293,1.818c0,.759-.029.768-.2.822-2.21.653-5.726,1.923-7.038,2.5A14.655,14.655,0,0,1,19.2,4.538ZM8.965,29.692c1.5-.613,4.494-1.681,6.461-2.261,1.143-.36,1.143-1.323,1.143-2.1a5.754,5.754,0,0,0-.419-2.386,7.554,7.554,0,0,1-.618-2.221.658.658,0,0,0-.225-.444,3.973,3.973,0,0,1-.818-1.992c-.194-.967-.111-1.178-.033-1.383a2.736,2.736,0,0,0,.093-.27,13.077,13.077,0,0,0-.213-3.574,4.173,4.173,0,0,1,.889-2.89A4.553,4.553,0,0,1,18.682,8.53h1.264a4.583,4.583,0,0,1,3.5,1.646,4.165,4.165,0,0,1,.888,2.891,13.118,13.118,0,0,0-.213,3.573c.028.1.059.184.093.271.08.2.161.416-.031,1.383a3.969,3.969,0,0,1-.819,1.992.672.672,0,0,0-.225.444,7.5,7.5,0,0,1-.615,2.221,5.663,5.663,0,0,0-.635,2.358c0,.774,0,1.737,1.155,2.1,1.882.556,4.889,1.589,6.478,2.213a14.634,14.634,0,0,1-20.553.073Z" transform="translate(1686.795 30.795)"/>
  </g>
</svg>
