<svg xmlns="http://www.w3.org/2000/svg" viewBox="0 0 41.872 33">
  <defs>
    <style>
      .cls-1 {
        fill: #5f6061;
      }
    </style>
  </defs>
  <g id="warehouse" transform="translate(-1.371 -0.002)">
    <g id="Group_33045" data-name="Group 33045" transform="translate(1.371 0.002)">
      <g id="Group_33044" data-name="Group 33044" transform="translate(0 0)">
        <path id="Path_31749" data-name="Path 31749" class="cls-1" d="M61.841,14.156l-4.4-8.871a.887.887,0,0,0-.535-.454L41.263.041A.886.886,0,0,0,41,0h-.01a.886.886,0,0,0-.26.039L25.089,4.831a.887.887,0,0,0-.535.454l-4.4,8.871a.887.887,0,0,0,1.59.788l4.23-8.529L41,1.815l15.024,4.6,4.23,8.529a.887.887,0,0,0,1.59-.788Z" transform="translate(-20.062 -0.002)"/>
      </g>
    </g>
    <g id="Group_33051" data-name="Group 33051" transform="translate(27.175 17.215)">
      <g id="Group_33050" data-name="Group 33050">
        <path id="Path_31752" data-name="Path 31752" class="cls-1" d="M312.465,194.293a.887.887,0,0,0-1.255,0l-.008.008a.887.887,0,0,0,1.255,1.255l.008-.008A.887.887,0,0,0,312.465,194.293Z" transform="translate(-310.942 -194.033)"/>
      </g>
    </g>
    <g id="Group_33053" data-name="Group 33053" transform="translate(15.719 17.282)">
      <g id="Group_33052" data-name="Group 33052">
        <path id="Path_31753" data-name="Path 31753" class="cls-1" d="M183.322,195.063l-.008-.008a.887.887,0,0,0-1.255,1.255l.008.008a.887.887,0,0,0,1.255-1.255Z" transform="translate(-181.799 -194.795)"/>
      </g>
    </g>
    <g id="Group_33063" data-name="Group 33063" transform="translate(4.382 2.84)">
      <g id="Group_33062" data-name="Group 33062">
        <path id="Path_31758" data-name="Path 31758" class="cls-1" d="M89.734,43.136,86,36.207a.887.887,0,0,0-.54-.433l-13.29-3.742A.953.953,0,0,0,71.916,32a.888.888,0,0,0-.24.033l-13.29,3.742a.887.887,0,0,0-.54.433l-3.738,6.929a.887.887,0,0,0-.106.421V61.273a.887.887,0,0,0,.887.887H88.942a.887.887,0,0,0,.887-.887l.011-17.716A.887.887,0,0,0,89.734,43.136ZM65.819,60.386l6.105-6.105,6.105,6.105Zm22.237,0h-7V44.773a.887.887,0,0,0-.887-.887H74.493a.887.887,0,0,0,0,1.774h4.79V59.132l-6.105-6.105,3.1-3.1a.887.887,0,0,0-1.255-1.255l-3.1,3.1L68.89,48.738a.887.887,0,1,0-1.255,1.255l3.034,3.034-6.112,6.111V45.66h4.79a.887.887,0,0,0,0-1.774H63.67a.887.887,0,0,0-.887.887V60.386H55.775V43.781l3.453-6.4,12.692-3.573L84.613,37.38l3.453,6.4Z" transform="translate(-54.001 -31.999)"/>
      </g>
    </g>
    <g id="Group_33065" data-name="Group 33065" transform="translate(21.414 14.728)">
      <g id="Group_33064" data-name="Group 33064">
        <path id="Path_31759" data-name="Path 31759" class="cls-1" d="M246.887,166a.887.887,0,1,0,0,1.774h0a.887.887,0,0,0,0-1.774Z" transform="translate(-246 -165.998)"/>
      </g>
    </g>
    <g id="Group_33067" data-name="Group 33067" transform="translate(18.842 6.833)">
      <g id="Group_33066" data-name="Group 33066">
        <path id="Path_31760" data-name="Path 31760" class="cls-1" d="M223.032,77h-5.145a.887.887,0,0,0-.887.887v5.145a.887.887,0,0,0,.887.887h5.145a.887.887,0,0,0,.887-.887V77.887A.887.887,0,0,0,223.032,77Zm-.887,5.145h-3.371V78.774h3.371Z" transform="translate(-217 -77)"/>
      </g>
    </g>
  </g>
</svg>
