<svg xmlns="http://www.w3.org/2000/svg" viewBox="0 0 142.82 101.063">
  <defs>
    <style>
      .cls-1 {
        fill: #f61c0d;
      }
    </style>
  </defs>
  <path id="youtube" class="cls-1" d="M113.158,67.393h-83.5A29.662,29.662,0,0,0,0,97.055v41.739a29.662,29.662,0,0,0,29.662,29.662h83.5a29.662,29.662,0,0,0,29.662-29.662V97.055A29.662,29.662,0,0,0,113.158,67.393ZM93.1,119.955,54.044,138.581a1.568,1.568,0,0,1-2.243-1.415V98.749a1.568,1.568,0,0,1,2.276-1.4l39.054,19.791A1.568,1.568,0,0,1,93.1,119.955Z" transform="translate(0 -67.393)"/>
</svg>
